<svg xmlns="http://www.w3.org/2000/svg"  viewBox="0 0 100 100" width="100px" height="100px"><path d="M 31 18 A 13 13 0 0 0 18 31 L 18 70 A 13 13 0 0 0 31 83 L 70 83 A 13 13 0 0 0 83 70 L 83 31 A 13 13 0 0 0 70 18 L 31 18 z M 31 20 L 70 20 A 11 11 0 0 1 81 31 L 81 70 A 11 11 0 0 1 70 81 L 31 81 A 11 11 0 0 1 20 70 L 20 31 A 11 11 0 0 1 31 20 z M 33.837891 23 A 10.837 10.837 0 0 0 23 33.837891 L 23 67.162109 A 10.837 10.837 0 0 0 33.837891 78 L 67.162109 78 A 10.838 10.838 0 0 0 78 67.162109 L 78 48.5 A 0.5 0.5 0 0 0 77.5 48 A 0.5 0.5 0 0 0 77 48.5 L 77 67.162109 A 9.837 9.837 0 0 1 67.162109 77 L 33.837891 77 A 9.838 9.838 0 0 1 24 67.162109 L 24 33.837891 A 9.837 9.837 0 0 1 33.837891 24 L 67.5 24 A 0.5 0.5 0 0 0 67.5 23 L 33.837891 23 z M 35 34 L 35 38 L 31 38 L 31 63 L 35 63 L 35 68 L 47 68 L 47 63 L 51 63 L 51 38 L 47 38 L 47 34 L 35 34 z M 55 34 L 55 62 L 55 68 L 61 68 L 61 54 L 66 54 L 66 44 L 71 44 L 71 34 L 55 34 z M 36 35 L 46 35 L 46 38 L 36 38 L 36 35 z M 56 35 L 70 35 L 70 37.892578 L 60 37.892578 L 60 44 L 65 44 L 65 48 L 60 48 L 60 62 L 56 62 L 56 35 z M 77.486328 36.580078 A 0.5 0.5 0 0 0 77 37.078125 L 77 39.078125 A 0.5 0.5 0 0 0 78 39.078125 L 78 37.078125 A 0.5 0.5 0 0 0 77.486328 36.580078 z M 32 39 L 35 39 L 35 57.892578 L 32 57.892578 L 32 39 z M 36 39 L 46 39 L 46 43 L 36 43 L 36 39 z M 47 39 L 50 39 L 50 57.892578 L 47 57.892578 L 47 39 z M 61 39 L 70 39 L 70 43 L 61 43 L 61 39 z M 77.5 40.578125 A 0.5 0.5 0 0 0 77 41.078125 L 77 45.078125 A 0.5 0.5 0 0 0 78 45.078125 L 78 41.078125 A 0.5 0.5 0 0 0 77.5 40.578125 z M 36 44 L 46 44 L 46 58 L 36 58 L 36 44 z M 61 49 L 65 49 L 65 53 L 61 53 L 61 49 z M 32 59 L 35 59 L 35 62 L 32 62 L 32 59 z M 36 59 L 46 59 L 46 62 L 36 62 L 36 59 z M 47 59 L 50 59 L 50 62 L 47 62 L 47 59 z M 36 63 L 46 63 L 46 67 L 36 67 L 36 63 z M 56 63 L 60 63 L 60 67 L 56 67 L 56 63 z"/></svg>